{"asset": {"generator": "Khronos glTF Blender I/O v4.4.56", "version": "2.0"}, "extensionsUsed": ["KHR_materials_transmission", "KHR_materials_emissive_strength"], "scene": 0, "scenes": [{"name": "Scene", "nodes": [0]}], "nodes": [{"mesh": 0, "name": "industrial_wall_lamp"}], "materials": [{"doubleSided": true, "emissiveFactor": [1, 1, 1], "emissiveTexture": {"index": 0}, "extensions": {"KHR_materials_emissive_strength": {"emissiveStrength": 100}}, "name": "industrial_wall_lamp", "normalTexture": {"index": 1}, "pbrMetallicRoughness": {"baseColorTexture": {"index": 2}, "metallicFactor": 0, "metallicRoughnessTexture": {"index": 3}}}, {"alphaMode": "BLEND", "doubleSided": true, "extensions": {"KHR_materials_transmission": {"transmissionFactor": 1}}, "name": "industrial_wall_lamp_glass", "normalTexture": {"index": 4}, "pbrMetallicRoughness": {"baseColorTexture": {"index": 5}, "metallicFactor": 0, "metallicRoughnessTexture": {"index": 6}}}], "meshes": [{"name": "Sphere.004", "primitives": [{"attributes": {"POSITION": 0, "NORMAL": 1, "TEXCOORD_0": 2}, "indices": 3, "material": 0}, {"attributes": {"POSITION": 4, "NORMAL": 5, "TEXCOORD_0": 6}, "indices": 7, "material": 1}]}], "textures": [{"sampler": 0, "source": 0}, {"sampler": 0, "source": 1}, {"sampler": 0, "source": 2}, {"sampler": 0, "source": 3}, {"sampler": 0, "source": 4}, {"sampler": 0, "source": 5}, {"sampler": 0, "source": 6}], "images": [{"mimeType": "image/jpeg", "name": "industrial_wall_lamp_emissive", "uri": "textures/industrial_wall_lamp_emissive_2k.jpg"}, {"mimeType": "image/jpeg", "name": "industrial_wall_lamp_nor_gl", "uri": "textures/industrial_wall_lamp_nor_gl_2k.jpg"}, {"mimeType": "image/jpeg", "name": "industrial_wall_lamp_diff", "uri": "textures/industrial_wall_lamp_diff_2k.jpg"}, {"mimeType": "image/jpeg", "name": "industrial_wall_lamp_rough", "uri": "textures/industrial_wall_lamp_arm_2k.jpg"}, {"mimeType": "image/jpeg", "name": "industrial_wall_lamp_glass_nor_gl", "uri": "textures/industrial_wall_lamp_glass_nor_gl_2k.jpg"}, {"mimeType": "image/jpeg", "name": "industrial_wall_lamp_glass_diff-industrial_wall_lamp_glass_alpha", "uri": "textures/industrial_wall_lamp_glass_diff_2k.jpg"}, {"mimeType": "image/jpeg", "name": "industrial_wall_lamp_glass_rough", "uri": "textures/industrial_wall_lamp_glass_arm_2k.jpg"}], "accessors": [{"bufferView": 0, "componentType": 5126, "count": 3078, "max": [0.13673660159111023, 0.21495330333709717, 0.1403784602880478], "min": [-0.13672421872615814, -0.21495330333709717, 1.702955643168025e-08], "type": "VEC3"}, {"bufferView": 1, "componentType": 5126, "count": 3078, "type": "VEC3"}, {"bufferView": 2, "componentType": 5126, "count": 3078, "type": "VEC2"}, {"bufferView": 3, "componentType": 5123, "count": 11094, "type": "SCALAR"}, {"bufferView": 4, "componentType": 5126, "count": 510, "max": [0.09193140268325806, 0.170073002576828, 0.12477032840251923], "min": [-0.09193135797977448, -0.17007310688495636, 0.027410930022597313], "type": "VEC3"}, {"bufferView": 5, "componentType": 5126, "count": 510, "type": "VEC3"}, {"bufferView": 6, "componentType": 5126, "count": 510, "type": "VEC2"}, {"bufferView": 7, "componentType": 5123, "count": 2244, "type": "SCALAR"}], "bufferViews": [{"buffer": 0, "byteLength": 36936, "byteOffset": 0, "target": 34962}, {"buffer": 0, "byteLength": 36936, "byteOffset": 36936, "target": 34962}, {"buffer": 0, "byteLength": 24624, "byteOffset": 73872, "target": 34962}, {"buffer": 0, "byteLength": 22188, "byteOffset": 98496, "target": 34963}, {"buffer": 0, "byteLength": 6120, "byteOffset": 120684, "target": 34962}, {"buffer": 0, "byteLength": 6120, "byteOffset": 126804, "target": 34962}, {"buffer": 0, "byteLength": 4080, "byteOffset": 132924, "target": 34962}, {"buffer": 0, "byteLength": 4488, "byteOffset": 137004, "target": 34963}], "samplers": [{"magFilter": 9729, "minFilter": 9987}], "buffers": [{"byteLength": 141492, "uri": "industrial_wall_lamp.bin"}]}