{"asset": {"generator": "Khronos glTF Blender I/O v5.1.20", "version": "2.0"}, "extensionsUsed": ["KHR_materials_specular"], "scene": 0, "scenes": [{"name": "Scene", "nodes": [0]}], "nodes": [{"mesh": 0, "name": "bronze_ray_statue"}], "materials": [{"doubleSided": true, "extensions": {"KHR_materials_specular": {"specularColorFactor": [0.20000000298023224, 0.20000000298023224, 0.20000000298023224]}}, "name": "bronze_ray_statue", "normalTexture": {"index": 0}, "pbrMetallicRoughness": {"baseColorTexture": {"index": 1}, "metallicRoughnessTexture": {"index": 2}}}], "meshes": [{"name": "Mesh.003", "primitives": [{"attributes": {"POSITION": 0, "NORMAL": 1, "TEXCOORD_0": 2}, "indices": 3, "material": 0}]}], "textures": [{"sampler": 0, "source": 0}, {"sampler": 0, "source": 1}, {"sampler": 0, "source": 2}], "images": [{"mimeType": "image/jpeg", "name": "bronze_ray_statue_nor_gl", "uri": "textures/bronze_ray_statue_nor_gl_2k.jpg"}, {"mimeType": "image/jpeg", "name": "bronze_ray_statue_diff", "uri": "textures/bronze_ray_statue_diff_2k.jpg"}, {"mimeType": "image/jpeg", "name": "bronze_ray_statue_metal-bronze_ray_statue_rough", "uri": "textures/bronze_ray_statue_arm_2k.jpg"}], "accessors": [{"bufferView": 0, "componentType": 5126, "count": 1438, "max": [0.39510485529899597, 0.5896477103233337, 0.21849103271961212], "min": [-0.31238943338394165, -5.587935447692871e-09, -0.3170573115348816], "type": "VEC3"}, {"bufferView": 1, "componentType": 5126, "count": 1438, "type": "VEC3"}, {"bufferView": 2, "componentType": 5126, "count": 1438, "type": "VEC2"}, {"bufferView": 3, "componentType": 5123, "count": 5532, "type": "SCALAR"}], "bufferViews": [{"buffer": 0, "byteLength": 17256, "byteOffset": 0, "target": 34962}, {"buffer": 0, "byteLength": 17256, "byteOffset": 17256, "target": 34962}, {"buffer": 0, "byteLength": 11504, "byteOffset": 34512, "target": 34962}, {"buffer": 0, "byteLength": 11064, "byteOffset": 46016, "target": 34963}], "samplers": [{"magFilter": 9729, "minFilter": 9987}], "buffers": [{"byteLength": 57080, "uri": "bronze_ray_statue.bin"}]}